<svg width="31" height="31" viewBox="0 0 31 31" fill="none" xmlns="http://www.w3.org/2000/svg">
<path d="M3.63991 10.3752L3.65102 13.1432C3.65288 13.3743 3.75656 13.5476 3.96208 13.6632L15.4072 20.0765C15.4857 20.121 15.5748 20.1444 15.6655 20.1444C15.7562 20.1444 15.8454 20.121 15.9238 20.0765L30.3601 11.9461C30.3914 11.9284 30.4269 11.9189 30.4631 11.9187C30.4993 11.9185 30.5349 11.9275 30.5662 11.9448C30.5975 11.9622 30.6234 11.9872 30.6413 12.0174C30.6593 12.0475 30.6686 12.0818 30.6683 12.1167C30.6757 15.0652 30.6711 18.0489 30.6544 21.0677C30.6526 21.6311 30.3082 22.1059 29.6213 22.4923C25.2388 24.9714 20.8525 27.4432 16.4626 29.9077C15.8294 30.2625 15.1517 30.0269 14.4935 29.664C7.96135 26.0529 3.60103 23.6244 1.41254 22.3786C0.432165 21.8207 0.632129 19.9005 0.707115 18.9119C0.709567 18.8751 0.721614 18.8395 0.742117 18.8085C0.76262 18.7775 0.790898 18.7521 0.824274 18.7348C0.85765 18.7174 0.895017 18.7087 0.932837 18.7093C0.970657 18.71 1.00768 18.7201 1.04039 18.7386L15.3489 26.7823C15.4461 26.8367 15.5562 26.8654 15.6683 26.8654C15.7804 26.8654 15.8905 26.8367 15.9877 26.7823L27.3134 20.3988C27.397 20.352 27.4664 20.2843 27.5147 20.2025C27.5629 20.1207 27.5884 20.0277 27.5883 19.9329L27.5994 17.2517C27.5994 17.0368 27.5032 16.9836 27.3106 17.0919L16.0488 23.424C15.7803 23.5757 15.5118 23.5757 15.2434 23.424L0.98762 15.4209C0.888872 15.365 0.806894 15.2848 0.749875 15.1883C0.692855 15.0918 0.662789 14.9824 0.662679 14.8711C0.670085 13.3562 0.673788 11.8152 0.673788 10.2479C0.671011 8.98587 0.943184 8.22482 2.04021 7.62087C6.19871 5.32962 10.3452 3.0158 14.4796 0.679408C15.8044 -0.0708 17.1041 0.782325 18.24 1.47566C18.4215 1.5876 18.4456 1.72483 18.3122 1.88733C18.2419 1.97038 18.1188 2.06156 17.9429 2.16087C14.3454 4.1867 10.7507 6.21524 7.15872 8.24649C7.05133 8.30608 6.96524 8.37288 6.90043 8.44691C6.89121 8.45723 6.88446 8.46943 6.88067 8.48261C6.87689 8.49579 6.87617 8.50963 6.87856 8.52313C6.88096 8.53662 6.88641 8.54942 6.89451 8.56059C6.90262 8.57177 6.91318 8.58105 6.92543 8.58774L9.51107 10.0313C9.56264 10.06 9.62085 10.0752 9.67984 10.0752C9.73883 10.0752 9.79652 10.06 9.84712 10.0313L21.2395 3.61524C21.3637 3.5451 21.5047 3.50795 21.6484 3.50747C21.7921 3.507 21.9336 3.54322 22.0588 3.61253C24.4121 4.91614 26.7959 6.26309 29.2103 7.65337C29.4898 7.81587 29.7898 8.04698 30.1101 8.3467C30.1453 8.37915 30.1721 8.41922 30.1885 8.46371C30.2049 8.5082 30.2103 8.55588 30.2044 8.60296C30.1984 8.65004 30.1813 8.69522 30.1543 8.73489C30.1274 8.77457 30.0913 8.80764 30.049 8.83149L15.8238 16.8292C15.7667 16.8621 15.7015 16.8792 15.635 16.8787C15.5685 16.8782 15.5032 16.8602 15.4461 16.8265L12.9521 15.3694C12.7558 15.2539 12.7568 15.1392 12.9549 15.0255C16.7672 12.8768 20.5581 10.7291 24.3278 8.58233C24.4037 8.53899 24.4463 8.50649 24.4556 8.48483C24.4721 8.44783 24.4704 8.40438 24.4508 8.36319C24.4312 8.322 24.3952 8.28612 24.35 8.26274L21.8644 6.94108C21.7956 6.90465 21.7186 6.88601 21.6408 6.88696C21.5629 6.88791 21.4869 6.90842 21.42 6.94649L9.91377 13.4167C9.8368 13.4603 9.74927 13.4833 9.66003 13.4833C9.57079 13.4833 9.483 13.4603 9.40553 13.4167L3.8371 10.2642C3.81716 10.2527 3.79443 10.2465 3.77124 10.2463C3.74805 10.2462 3.72524 10.2521 3.70516 10.2634C3.68508 10.2747 3.66845 10.291 3.65698 10.3107C3.64551 10.3303 3.63962 10.3526 3.63991 10.3752Z" fill="#1C4532"/>
</svg>
